<svg viewBox="0 0 1440 1024" fill="none" xmlns="http://www.w3.org/2000/svg">
<rect width="1440" height="1024" fill="white"/>
<g filter="url(#filter0_d_278_6)">
<path d="M0 1024V0H589.418C580.903 10.0629 554.838 44.6792 518.706 102.642C473.542 175.094 435.677 289.811 443.889 359.245C452.1 428.679 464.178 510.233 574.82 555.472C687.047 601.358 707.12 616.396 739.054 652.679C783.306 702.958 666.973 726.943 642.794 742.642C618.616 758.34 576.188 799.396 582.575 829.585C588.962 859.774 618.616 882.113 649.638 879.094C680.66 876.075 712.138 900.226 680.203 944.302C654.656 979.562 669.559 1012.13 680.203 1024H0Z" fill="url(#paint0_linear_278_6)"/>
</g>
<defs>
<filter id="filter0_d_278_6" x="-14" y="-30" width="809" height="1084" filterUnits="userSpaceOnUse" color-interpolation-filters="sRGB">
<feFlood flood-opacity="0" result="BackgroundImageFix"/>
<feColorMatrix in="SourceAlpha" type="matrix" values="0 0 0 0 0 0 0 0 0 0 0 0 0 0 0 0 0 0 127 0" result="hardAlpha"/>
<feOffset dx="16"/>
<feGaussianBlur stdDeviation="15"/>
<feComposite in2="hardAlpha" operator="out"/>
<feColorMatrix type="matrix" values="0 0 0 0 0.286275 0 0 0 0 0.556863 0 0 0 0 1 0 0 0 1 0"/>
<feBlend mode="normal" in2="BackgroundImageFix" result="effect1_dropShadow_278_6"/>
<feBlend mode="normal" in="SourceGraphic" in2="effect1_dropShadow_278_6" result="shape"/>
</filter>
<linearGradient id="paint0_linear_278_6" x1="10.466" y1="8.48344" x2="742.034" y2="960.465" gradientUnits="userSpaceOnUse">
<stop stop-color="#325FFF"/>
<stop offset="1" stop-color="#67C8FF"/>
</linearGradient>
</defs>
</svg>
