<svg width="24" height="24" viewBox="0 0 24 24" fill="none" xmlns="http://www.w3.org/2000/svg">
<path fill-rule="evenodd" clip-rule="evenodd" d="M22.5429 20.9921H15.0018C15.0018 21.7898 14.6839 22.5549 14.1182 23.119C13.5525 23.6831 12.7852 24 11.9851 24C11.1851 24 10.4178 23.6831 9.85205 23.119C9.28633 22.5549 8.9685 21.7898 8.9685 20.9921H1.42132C1.11385 20.9831 0.81722 20.8768 0.574419 20.6885C0.331618 20.5002 0.155266 20.2397 0.0709262 19.9448C-0.0183632 19.6561 -0.0234523 19.3481 0.0562533 19.0567C0.135959 18.7653 0.297169 18.5025 0.521057 18.299C1.26758 17.7416 1.87427 17.0192 2.29343 16.1885C2.71259 15.3577 2.93281 14.4414 2.93676 13.5115V9.0231C2.93676 6.63002 3.89014 4.33496 5.58718 2.6428C7.28422 0.950645 9.5859 0 11.9859 0C14.3859 0 16.6875 0.950645 18.3846 2.6428C20.0816 4.33496 21.035 6.63002 21.035 9.0231V13.5115C21.0386 14.4411 21.2584 15.3573 21.677 16.188C22.0956 17.0187 22.7017 17.7413 23.4477 18.299C23.6924 18.4869 23.8688 18.7494 23.9501 19.0465C24.0314 19.3436 24.013 19.659 23.8978 19.9448C23.8133 20.2404 23.6362 20.5015 23.3925 20.6898C23.1488 20.8782 22.8512 20.9841 22.5429 20.9921Z" fill="#5F5F5F"/>
</svg>

