<svg width="24" height="24" viewBox="0 0 24 24" fill="none" xmlns="http://www.w3.org/2000/svg">
<path d="M0 24V21C0 17.7 5.4 15 12 15C18.6 15 24 17.7 24 21V24H0ZM6 6C6 4.81331 6.35189 3.65328 7.01118 2.66658C7.67047 1.67989 8.60754 0.910851 9.7039 0.456725C10.8003 0.00259967 12.0067 -0.11622 13.1705 0.115291C14.3344 0.346802 15.4035 0.918247 16.2426 1.75736C17.0818 2.59648 17.6532 3.66557 17.8847 4.82946C18.1162 5.99335 17.9974 7.19975 17.5433 8.2961C17.0892 9.39246 16.3201 10.3295 15.3334 10.9888C14.3467 11.6481 13.1867 12 12 12C10.4087 12 8.88258 11.3679 7.75736 10.2426C6.63214 9.11742 6 7.5913 6 6Z" fill="#585858"/>
</svg>

